<svg x="0px" y="0px" viewBox="0 0 1000 1000" enable-background="new 0 0 1000 1000" xml:space="preserve">
	<g>
		<path d="M980.8,423.2c-13.3-14.8-36.3-16-51-2.7l-45.8,41c-17.7-195.9-182.7-349.9-383.2-349.9c-132.4,0-253.9,66.8-325.1,178.6c-10.7,16.8-5.7,39.2,11.1,49.8c16.9,10.6,39.3,5.7,49.8-11.1c57.8-90.9,156.6-145.1,264.1-145.1c163,0,297,125.3,311.2,284.6l-53.3-48c-14.8-13.3-37.7-12.1-51,2.7c-13.4,14.8-12.2,37.7,2.7,51l109.5,98.4c6.9,6.2,15.5,9.3,24.2,9.3c8.6,0,17.2-3.2,24.2-9.3l109.6-98.4C992.9,460.9,994.1,438,980.8,423.2z"/>
		<path d="M816.8,659.8c-16.7-10.6-39.2-5.7-49.9,11.1C709,761.8,610.3,816.1,502.7,816.1c-161.8,0-295.3-123.6-311.1-281.3l49.6,44.6c6.9,6.3,15.5,9.3,24.1,9.3c9.9,0,19.7-4.1,26.9-12c13.3-14.8,12-37.7-2.7-51l-109.6-98.3c-13.6-12.4-34.5-12.4-48.2,0L22,525.7c-14.8,13.3-16,36.3-2.7,51c13.2,14.9,36.1,16.1,51,2.7l49.1-44.1c16.3,197.3,181.9,353.1,383.3,353.1c132.3,0,253.9-66.9,325.2-178.8C838.6,692.9,833.6,670.5,816.8,659.8z"/>
	</g>
</svg>